<svg xmlns="http://www.w3.org/2000/svg" width="1600" height="900" viewBox="0 0 1600 900">
  <defs>
    <filter id="shadow2" x="-20%" y="-20%" width="140%" height="140%">
      <feDropShadow dx="0" dy="7" stdDeviation="9" flood-color="#0f172a" flood-opacity=".09"/>
    </filter>
    <marker id="arrow2" markerWidth="12" markerHeight="12" refX="10" refY="6" orient="auto">
      <path d="M0,0 L12,6 L0,12 z" fill="#475569"/>
    </marker>
    <style>
      .title{font:700 42px Inter,Arial,sans-serif;fill:#0f172a}
      .subtitle{font:400 20px Inter,Arial,sans-serif;fill:#475569}
      .lane{font:700 18px Inter,Arial,sans-serif;fill:#334155}
      .nodeTitle{font:700 18px Inter,Arial,sans-serif;fill:#0f172a}
      .nodeText{font:400 14px Inter,Arial,sans-serif;fill:#64748b}
      .badge{font:700 13px Inter,Arial,sans-serif;fill:#166534}
      .arrow{stroke:#475569;stroke-width:3;fill:none;marker-end:url(#arrow2)}
    </style>
  </defs>
  <rect width="1600" height="900" fill="#f8fafc"/>
  <text x="80" y="82" class="title">dbt model lineage</text>
  <text x="80" y="120" class="subtitle">Two source domains converge on the same governed staging-to-mart pattern.</text>

  <rect x="80" y="166" width="1440" height="300" rx="8" fill="#fff" stroke="#cbd5e1" stroke-width="2"/>
  <rect x="80" y="166" width="14" height="300" rx="7" fill="#f97316"/>
  <text x="116" y="207" class="lane">INGESTED JAFFLE PATH · owned end to end</text>
  <g filter="url(#shadow2)">
    <rect x="120" y="240" width="220" height="84" rx="8" fill="#fff7ed" stroke="#fb923c" stroke-width="2"/>
    <text x="146" y="274" class="nodeTitle">RAW_CUSTOMERS</text><text x="146" y="300" class="nodeText">931 rows</text>
    <rect x="120" y="348" width="220" height="84" rx="8" fill="#fff7ed" stroke="#fb923c" stroke-width="2"/>
    <text x="146" y="382" class="nodeTitle">RAW_ORDERS</text><text x="146" y="408" class="nodeText">72,892 rows</text>
    <rect x="470" y="240" width="270" height="84" rx="8" fill="#ecfeff" stroke="#22d3ee" stroke-width="2"/>
    <text x="496" y="274" class="nodeTitle">stg_jaffle__customers</text><text x="496" y="300" class="nodeText">view · standardized identity</text>
    <rect x="470" y="348" width="270" height="84" rx="8" fill="#ecfeff" stroke="#22d3ee" stroke-width="2"/>
    <text x="496" y="382" class="nodeTitle">stg_jaffle__orders</text><text x="496" y="408" class="nodeText">view · cents converted to currency</text>
    <rect x="900" y="276" width="300" height="120" rx="8" fill="#ecfdf5" stroke="#34d399" stroke-width="2"/>
    <text x="930" y="318" class="nodeTitle">fct_jaffle_orders</text>
    <text x="930" y="348" class="nodeText">table · customer-enriched orders</text>
    <rect x="930" y="362" width="172" height="24" rx="12" fill="#dcfce7"/>
    <text x="948" y="379" class="badge">one row per order</text>
    <rect x="1320" y="276" width="150" height="120" rx="8" fill="#f0fdf4" stroke="#22c55e" stroke-width="2"/>
    <text x="1350" y="318" class="nodeTitle">Tests</text>
    <text x="1350" y="348" class="nodeText">9 staging</text>
    <text x="1350" y="374" class="nodeText">9 mart</text>
  </g>
  <path d="M340 282 H458" class="arrow"/>
  <path d="M340 390 H458" class="arrow"/>
  <path d="M740 282 C820 282 820 316 888 326" class="arrow"/>
  <path d="M740 390 C820 390 820 356 888 346" class="arrow"/>
  <path d="M1200 336 H1308" class="arrow"/>

  <rect x="80" y="500" width="1440" height="300" rx="8" fill="#fff" stroke="#cbd5e1" stroke-width="2"/>
  <rect x="80" y="500" width="14" height="300" rx="7" fill="#8b5cf6"/>
  <text x="116" y="541" class="lane">SNOWFLAKE SAMPLE PATH · warehouse-native benchmark</text>
  <g filter="url(#shadow2)">
    <rect x="120" y="574" width="220" height="84" rx="8" fill="#f5f3ff" stroke="#a78bfa" stroke-width="2"/>
    <text x="146" y="608" class="nodeTitle">TPCH CUSTOMER</text><text x="146" y="634" class="nodeText">150,000 rows</text>
    <rect x="120" y="682" width="220" height="84" rx="8" fill="#f5f3ff" stroke="#a78bfa" stroke-width="2"/>
    <text x="146" y="716" class="nodeTitle">TPCH ORDERS</text><text x="146" y="742" class="nodeText">1,500,000 rows</text>
    <rect x="470" y="574" width="270" height="84" rx="8" fill="#ecfeff" stroke="#22d3ee" stroke-width="2"/>
    <text x="496" y="608" class="nodeTitle">stg_tpch__customers</text><text x="496" y="634" class="nodeText">view · customer attributes</text>
    <rect x="470" y="682" width="270" height="84" rx="8" fill="#ecfeff" stroke="#22d3ee" stroke-width="2"/>
    <text x="496" y="716" class="nodeTitle">stg_tpch__orders</text><text x="496" y="742" class="nodeText">view · order attributes</text>
    <rect x="900" y="610" width="300" height="120" rx="8" fill="#ecfdf5" stroke="#34d399" stroke-width="2"/>
    <text x="930" y="652" class="nodeTitle">fct_orders</text>
    <text x="930" y="682" class="nodeText">table · customer-enriched orders</text>
    <rect x="930" y="696" width="172" height="24" rx="12" fill="#dcfce7"/>
    <text x="948" y="713" class="badge">1.5 million rows</text>
    <rect x="1320" y="610" width="150" height="120" rx="8" fill="#f0fdf4" stroke="#22c55e" stroke-width="2"/>
    <text x="1350" y="652" class="nodeTitle">Tests</text>
    <text x="1350" y="682" class="nodeText">6 staging</text>
    <text x="1350" y="708" class="nodeText">4 mart</text>
  </g>
  <path d="M340 616 H458" class="arrow"/>
  <path d="M340 724 H458" class="arrow"/>
  <path d="M740 616 C820 616 820 650 888 660" class="arrow"/>
  <path d="M740 724 C820 724 820 690 888 680" class="arrow"/>
  <path d="M1200 670 H1308" class="arrow"/>

  <rect x="80" y="830" width="1440" height="42" rx="8" fill="#0f172a"/>
  <text x="112" y="857" style="font:600 15px Inter,Arial,sans-serif;fill:#e2e8f0">All dependencies use dbt source() and ref(); all 28 tests passed in the verified Airflow run.</text>
</svg>
